<svg aria-hidden="true" style="width:0;height:0;position:absolute;overflow:hidden" xmlns="http://www.w3.org/2000/svg"><defs><symbol id="icon-search" viewBox="0 0 32 32"><path d="m31.008 27.231-7.58-6.447c-.784-.705-1.622-1.029-2.299-.998a11.954 11.954 0 0 0 2.87-7.787c0-6.627-5.373-12-12-12s-12 5.373-12 12 5.373 12 12 12c2.972 0 5.691-1.081 7.787-2.87-.031.677.293 1.515.998 2.299l6.447 7.58c1.104 1.226 2.907 1.33 4.007.23s.997-2.903-.23-4.007zM12 20a8 8 0 1 1 0-16 8 8 0 0 1 0 16z"/></symbol><symbol id="icon-menu" viewBox="2 -0.7 20 25"><path d="M16 22.75H8c-3.65 0-5.75-2.1-5.75-5.75V7c0-3.65 2.1-5.75 5.75-5.75h8c3.65 0 5.75 2.1 5.75 5.75v10c0 3.65-2.1 5.75-5.75 5.75Zm-8-20C5.14 2.75 3.75 4.14 3.75 7v10c0 2.86 1.39 4.25 4.25 4.25h8c2.86 0 4.25-1.39 4.25-4.25V7c0-2.86-1.39-4.25-4.25-4.25H8Z"/><path d="M16.25 11.75h-8.5a2.5 2.5 0 0 1-2.5-2.5v-2.5a2.5 2.5 0 0 1 2.5-2.5h8.5a2.5 2.5 0 0 1 2.5 2.5v2.5a2.5 2.5 0 0 1-2.5 2.5Zm-8.5-6c-.55 0-1 .45-1 1v2.5c0 .55.45 1 1 1h8.5c.55 0 1-.45 1-1v-2.5c0-.55-.45-1-1-1h-8.5ZM8 18.33c-.19 0-.38-.07-.53-.22a.754.754 0 0 1 0-1.06l2.3-2.3c.29-.29.77-.29 1.06 0 .29.29.29.77 0 1.06l-2.3 2.3c-.15.15-.34.22-.53.22Z"/><path d="M10.33 18.36c-.19 0-.38-.07-.53-.22l-2.3-2.3a.754.754 0 0 1 0-1.06c.29-.29.77-.29 1.06 0l2.3 2.3c.29.29.29.77 0 1.06-.15.15-.34.22-.53.22ZM16.51 16.33c-.55 0-1.01-.45-1.01-1s.44-1 .99-1h.02c.55 0 1 .45 1 1s-.45 1-1 1ZM14.49 18.49c-.55 0-1-.44-1-.99v-.02c0-.55.45-1 1-1s1 .45 1 1-.45 1.01-1 1.01Z"/></symbol><symbol id="icon-pokeball" viewBox="18 18 50 50"><path stroke-width=".2" stroke-linejoin="round" d="M38 19c10.493 0 19 8.507 19 19s-8.507 19-19 19-19-8.507-19-19 8.507-19 19-19Zm0 3.958c-7.773 0-14.168 5.896-14.96 13.459h7.202a7.92 7.92 0 0 1 15.516 0h7.201C52.17 28.854 45.772 22.958 38 22.958ZM23.04 39.583c.792 7.563 7.188 13.459 14.96 13.459 7.773 0 14.168-5.896 14.96-13.459h-7.202a7.92 7.92 0 0 1-15.516 0H23.04ZM38 33.25a4.75 4.75 0 1 0 0 9.5 4.75 4.75 0 0 0 0-9.5Zm0 2.375a2.375 2.375 0 1 1 0 4.75 2.375 2.375 0 0 1 0-4.75Z"/></symbol></defs></svg>