<svg width="40" height="40" viewBox="0 0 76 76" xmlns="http://www.w3.org/2000/svg"><path fill="#fff" d="M38 19c10.493 0 19 8.507 19 19s-8.507 19-19 19-19-8.507-19-19 8.507-19 19-19Zm0 3.958c-7.773 0-14.168 5.896-14.96 13.459h7.202a7.92 7.92 0 0 1 15.516 0h7.201C52.17 28.854 45.772 22.958 38 22.958ZM23.04 39.583c.792 7.563 7.188 13.459 14.96 13.459 7.773 0 14.168-5.896 14.96-13.459h-7.202a7.92 7.92 0 0 1-15.516 0H23.04ZM38 33.25a4.75 4.75 0 1 0 0 9.5 4.75 4.75 0 0 0 0-9.5Zm0 2.375a2.375 2.375 0 1 1 0 4.75 2.375 2.375 0 0 1 0-4.75Z"/></svg>