<svg aria-hidden="true" style="position: absolute; width: 0; height: 0; overflow: hidden;" version="1.1" xmlns="http://www.w3.org/2000/svg" xmlns:xlink="http://www.w3.org/1999/xlink">
<defs>

<symbol id="icon-sun" viewBox="0 0 32 32">
<path d="M16 26c1.105 0 2 0.895 2 2v2c0 1.105-0.895 2-2 2s-2-0.895-2-2v-2c0-1.105 0.895-2 2-2zM16 6c-1.105 0-2-0.895-2-2v-2c0-1.105 0.895-2 2-2s2 0.895 2 2v2c0 1.105-0.895 2-2 2zM30 14c1.105 0 2 0.895 2 2s-0.895 2-2 2h-2c-1.105 0-2-0.895-2-2s0.895-2 2-2h2zM6 16c0 1.105-0.895 2-2 2h-2c-1.105 0-2-0.895-2-2s0.895-2 2-2h2c1.105 0 2 0.895 2 2zM25.899 23.071l1.414 1.414c0.781 0.781 0.781 2.047 0 2.828s-2.047 0.781-2.828 0l-1.414-1.414c-0.781-0.781-0.781-2.047 0-2.828s2.047-0.781 2.828 0zM6.101 8.929l-1.414-1.414c-0.781-0.781-0.781-2.047 0-2.828s2.047-0.781 2.828 0l1.414 1.414c0.781 0.781 0.781 2.047 0 2.828s-2.047 0.781-2.828 0zM25.899 8.929c-0.781 0.781-2.047 0.781-2.828 0s-0.781-2.047 0-2.828l1.414-1.414c0.781-0.781 2.047-0.781 2.828 0s0.781 2.047 0 2.828l-1.414 1.414zM6.101 23.071c0.781-0.781 2.047-0.781 2.828 0s0.781 2.047 0 2.828l-1.414 1.414c-0.781 0.781-2.047 0.781-2.828 0s-0.781-2.047 0-2.828l1.414-1.414z"></path>
<path d="M16 8c-4.418 0-8 3.582-8 8s3.582 8 8 8c4.418 0 8-3.582 8-8s-3.582-8-8-8zM16 21c-2.761 0-5-2.239-5-5s2.239-5 5-5 5 2.239 5 5-2.239 5-5 5z"></path>
</symbol>

<symbol id="icon-contrast" viewBox="0 0 32 32">
<path d="M16 0c-8.837 0-16 7.163-16 16s7.163 16 16 16 16-7.163 16-16-7.163-16-16-16zM4 16c0-6.627 5.373-12 12-12v24c-6.627 0-12-5.373-12-12z"></path>
</symbol>

<symbol id="icon-brightness-contrast" viewBox="0 0 32 32">
<path d="M16 8c-4.418 0-8 3.582-8 8s3.582 8 8 8 8-3.582 8-8-3.582-8-8-8zM16 21v-10c2.757 0 5 2.243 5 5s-2.243 5-5 5zM16 26c1.105 0 2 0.895 2 2v2c0 1.105-0.895 2-2 2s-2-0.895-2-2v-2c0-1.105 0.895-2 2-2zM16 6c-1.105 0-2-0.895-2-2v-2c0-1.105 0.895-2 2-2s2 0.895 2 2v2c0 1.105-0.895 2-2 2zM30 14c1.105 0 2 0.895 2 2s-0.895 2-2 2h-2c-1.105 0-2-0.895-2-2s0.895-2 2-2h2zM6 16c0 1.105-0.895 2-2 2h-2c-1.105 0-2-0.895-2-2s0.895-2 2-2h2c1.105 0 2 0.895 2 2zM25.899 23.071l1.414 1.414c0.781 0.781 0.781 2.047 0 2.828s-2.047 0.781-2.828 0l-1.414-1.414c-0.781-0.781-0.781-2.047 0-2.828s2.047-0.781 2.828 0zM6.101 8.929l-1.414-1.414c-0.781-0.781-0.781-2.047 0-2.828s2.047-0.781 2.828 0l1.414 1.414c0.781 0.781 0.781 2.047 0 2.828s-2.047 0.781-2.828 0zM25.899 8.929c-0.781 0.781-2.047 0.781-2.828 0s-0.781-2.047 0-2.828l1.414-1.414c0.781-0.781 2.047-0.781 2.828 0s0.781 2.047 0 2.828l-1.414 1.414zM6.101 23.071c0.781-0.781 2.047-0.781 2.828 0s0.781 2.047 0 2.828l-1.414 1.414c-0.781 0.781-2.047 0.781-2.828 0s-0.781-2.047 0-2.828l1.414-1.414z"></path>
</symbol>

<symbol id="icon-menu" viewBox="2 -0.7 20 25">
<path d="M16 22.75H8C4.35 22.75 2.25 20.65 2.25 17V7C2.25 3.35 4.35 1.25 8 1.25H16C19.65 1.25 21.75 3.35 21.75 7V17C21.75 20.65 19.65 22.75 16 22.75ZM8 2.75C5.14 2.75 3.75 4.14 3.75 7V17C3.75 19.86 5.14 21.25 8 21.25H16C18.86 21.25 20.25 19.86 20.25 17V7C20.25 4.14 18.86 2.75 16 2.75H8Z"/><path d="M16.25 11.75H7.75C6.37 11.75 5.25 10.63 5.25 9.25V6.75C5.25 5.37 6.37 4.25 7.75 4.25H16.25C17.63 4.25 18.75 5.37 18.75 6.75V9.25C18.75 10.63 17.63 11.75 16.25 11.75ZM7.75 5.75C7.2 5.75 6.75 6.2 6.75 6.75V9.25C6.75 9.8 7.2 10.25 7.75 10.25H16.25C16.8 10.25 17.25 9.8 17.25 9.25V6.75C17.25 6.2 16.8 5.75 16.25 5.75H7.75Z"/><path d="M7.99994 18.33C7.80994 18.33 7.61994 18.26 7.46994 18.11C7.17994 17.82 7.17994 17.34 7.46994 17.05L9.76993 14.75C10.0599 14.46 10.5399 14.46 10.8299 14.75C11.1199 15.04 11.1199 15.52 10.8299 15.81L8.52994 18.11C8.37994 18.26 8.18994 18.33 7.99994 18.33Z"/><path d="M10.3297 18.36C10.1397 18.36 9.94971 18.29 9.79971 18.14L7.49973 15.84C7.20973 15.55 7.20973 15.07 7.49973 14.78C7.78973 14.49 8.26972 14.49 8.55972 14.78L10.8597 17.08C11.1497 17.37 11.1497 17.85 10.8597 18.14C10.7097 18.29 10.5197 18.36 10.3297 18.36Z"/><path d="M16.51 16.3301C15.96 16.3301 15.5 15.8801 15.5 15.3301C15.5 14.7801 15.94 14.3301 16.49 14.3301H16.51C17.06 14.3301 17.51 14.7801 17.51 15.3301C17.51 15.8801 17.06 16.3301 16.51 16.3301Z"/><path d="M14.4902 18.49C13.9402 18.49 13.4902 18.05 13.4902 17.5V17.48C13.4902 16.93 13.9402 16.48 14.4902 16.48C15.0402 16.48 15.4902 16.93 15.4902 17.48C15.4902 18.03 15.0402 18.49 14.4902 18.49Z"/>
</symbol>

<symbol id="icon-pokeball" viewBox="18 18 50 50">
	<path fill-opacity="1" stroke-width="0.2" stroke-linejoin="round" d="M 38,19C 48.4934,19 57,27.5066 57,38C 57,48.4934 48.4934,57 38,57C 27.5066,57 19,48.4934 19,38C 19,27.5066 27.5066,19 38,19 Z M 38,22.9583C 30.2275,22.9583 23.8319,28.8536 23.0407,36.4167L 30.2417,36.4167C 30.9752,32.8031 34.17,30.0833 38,30.0833C 41.83,30.0833 45.0248,32.8031 45.7583,36.4167L 52.9593,36.4167C 52.1681,28.8536 45.7725,22.9583 38,22.9583 Z M 23.0407,39.5833C 23.8319,47.1464 30.2275,53.0417 38,53.0417C 45.7725,53.0417 52.1681,47.1464 52.9593,39.5833L 45.7583,39.5834C 45.0248,43.1969 41.83,45.9167 38,45.9167C 34.17,45.9167 30.9752,43.1969 30.2417,39.5834L 23.0407,39.5833 Z M 38,33.25C 35.3766,33.25 33.25,35.3767 33.25,38C 33.25,40.6234 35.3766,42.75 38,42.75C 40.6233,42.75 42.75,40.6234 42.75,38C 42.75,35.3767 40.6233,33.25 38,33.25 Z M 38,35.625C 39.3117,35.625 40.375,36.6883 40.375,38C 40.375,39.3117 39.3117,40.375 38,40.375C 36.6883,40.375 35.625,39.3117 35.625,38C 35.625,36.6883 36.6883,35.625 38,35.625 Z "/>
</symbol>

</defs>
</svg>
